0
SECTION
2
HEADER
0
ENDSEC
0
SECTION
2
ENTITIES
0
POLYLINE
8
SOLID
66
1
70
1
0
VERTEX
8
SOLID
10
0.139698
20
0.083418
30
0.0
0
VERTEX
8
SOLID
10
0.141709
20
0.083418
30
0.0
0
VERTEX
8
SOLID
10
0.143719
20
0.081915
30
0.0
0
VERTEX
8
SOLID
10
0.145729
20
0.081915
30
0.0
0
VERTEX
8
SOLID
10
0.147739
20
0.080412
30
0.0
0
VERTEX
8
SOLID
10
0.149749
20
0.078909
30
0.0
0
VERTEX
8
SOLID
10
0.149749
20
0.077406
30
0.0
0
VERTEX
8
SOLID
10
0.149749
20
0.075903
30
0.0
0
VERTEX
8
SOLID
10
0.147739
20
0.074400
30
0.0
0
VERTEX
8
SOLID
10
0.145729
20
0.072897
30
0.0
0
VERTEX
8
SOLID
10
0.143719
20
0.072897
30
0.0
0
VERTEX
8
SOLID
10
0.143719
20
0.071394
30
0.0
0
VERTEX
8
SOLID
10
0.143719
20
0.069891
30
0.0
0
VERTEX
8
SOLID
10
0.145729
20
0.069891
30
0.0
0
VERTEX
8
SOLID
10
0.147739
20
0.069891
30
0.0
0
VERTEX
8
SOLID
10
0.149749
20
0.068388
30
0.0
0
VERTEX
8
SOLID
10
0.151759
20
0.066885
30
0.0
0
VERTEX
8
SOLID
10
0.153769
20
0.065382
30
0.0
0
VERTEX
8
SOLID
10
0.153769
20
0.063879
30
0.0
0
VERTEX
8
SOLID
10
0.155779
20
0.062376
30
0.0
0
VERTEX
8
SOLID
10
0.157789
20
0.062376
30
0.0
0
VERTEX
8
SOLID
10
0.159799
20
0.060873
30
0.0
0
VERTEX
8
SOLID
10
0.159799
20
0.059370
30
0.0
0
VERTEX
8
SOLID
10
0.159799
20
0.057867
30
0.0
0
VERTEX
8
SOLID
10
0.161809
20
0.056364
30
0.0
0
VERTEX
8
SOLID
10
0.161809
20
0.054861
30
0.0
0
VERTEX
8
SOLID
10
0.161809
20
0.053358
30
0.0
0
VERTEX
8
SOLID
10
0.161809
20
0.051855
30
0.0
0
VERTEX
8
SOLID
10
0.161809
20
0.050352
30
0.0
0
VERTEX
8
SOLID
10
0.163819
20
0.048848
30
0.0
0
VERTEX
8
SOLID
10
0.163819
20
0.047345
30
0.0
0
VERTEX
8
SOLID
10
0.165829
20
0.045842
30
0.0
0
VERTEX
8
SOLID
10
0.165829
20
0.044339
30
0.0
0
VERTEX
8
SOLID
10
0.167839
20
0.044339
30
0.0
0
VERTEX
8
SOLID
10
0.169849
20
0.042836
30
0.0
0
VERTEX
8
SOLID
10
0.171859
20
0.044339
30
0.0
0
VERTEX
8
SOLID
10
0.173869
20
0.045842
30
0.0
0
VERTEX
8
SOLID
10
0.175879
20
0.045842
30
0.0
0
VERTEX
8
SOLID
10
0.177889
20
0.044339
30
0.0
0
VERTEX
8
SOLID
10
0.177889
20
0.042836
30
0.0
0
VERTEX
8
SOLID
10
0.177889
20
0.041333
30
0.0
0
VERTEX
8
SOLID
10
0.177889
20
0.039830
30
0.0
0
VERTEX
8
SOLID
10
0.177889
20
0.041333
30
0.0
0
VERTEX
8
SOLID
10
0.177889
20
0.042836
30
0.0
0
VERTEX
8
SOLID
10
0.179899
20
0.044339
30
0.0
0
VERTEX
8
SOLID
10
0.181910
20
0.045842
30
0.0
0
VERTEX
8
SOLID
10
0.183920
20
0.047345
30
0.0
0
VERTEX
8
SOLID
10
0.185930
20
0.045842
30
0.0
0
VERTEX
8
SOLID
10
0.185930
20
0.044339
30
0.0
0
VERTEX
8
SOLID
10
0.187940
20
0.044339
30
0.0
0
VERTEX
8
SOLID
10
0.189950
20
0.042836
30
0.0
0
VERTEX
8
SOLID
10
0.189950
20
0.041333
30
0.0
0
VERTEX
8
SOLID
10
0.191960
20
0.042836
30
0.0
0
VERTEX
8
SOLID
10
0.193970
20
0.042836
30
0.0
0
VERTEX
8
SOLID
10
0.195980
20
0.042836
30
0.0
0
VERTEX
8
SOLID
10
0.197990
20
0.041333
30
0.0
0
VERTEX
8
SOLID
10
0.200000
20
0.041333
30
0.0
0
VERTEX
8
SOLID
10
0.202010
20
0.041333
30
0.0
0
VERTEX
8
SOLID
10
0.204020
20
0.042836
30
0.0
0
VERTEX
8
SOLID
10
0.206030
20
0.042836
30
0.0
0
VERTEX
8
SOLID
10
0.208040
20
0.042836
30
0.0
0
VERTEX
8
SOLID
10
0.210050
20
0.041333
30
0.0
0
VERTEX
8
SOLID
10
0.212060
20
0.041333
30
0.0
0
VERTEX
8
SOLID
10
0.214070
20
0.041333
30
0.0
0
VERTEX
8
SOLID
10
0.216080
20
0.041333
30
0.0
0
VERTEX
8
SOLID
10
0.218090
20
0.041333
30
0.0
0
VERTEX
8
SOLID
10
0.220101
20
0.042836
30
0.0
0
VERTEX
8
SOLID
10
0.220101
20
0.044339
30
0.0
0
VERTEX
8
SOLID
10
0.222111
20
0.045842
30
0.0
0
VERTEX
8
SOLID
10
0.222111
20
0.047345
30
0.0
0
VERTEX
8
SOLID
10
0.222111
20
0.048848
30
0.0
0
VERTEX
8
SOLID
10
0.222111
20
0.050352
30
0.0
0
VERTEX
8
SOLID
10
0.224121
20
0.051855
30
0.0
0
VERTEX
8
SOLID
10
0.224121
20
0.053358
30
0.0
0
VERTEX
8
SOLID
10
0.224121
20
0.054861
30
0.0
0
VERTEX
8
SOLID
10
0.224121
20
0.056364
30
0.0
0
VERTEX
8
SOLID
10
0.224121
20
0.057867
30
0.0
0
VERTEX
8
SOLID
10
0.224121
20
0.059370
30
0.0
0
VERTEX
8
SOLID
10
0.226131
20
0.060873
30
0.0
0
VERTEX
8
SOLID
10
0.228141
20
0.062376
30
0.0
0
VERTEX
8
SOLID
10
0.230151
20
0.063879
30
0.0
0
VERTEX
8
SOLID
10
0.230151
20
0.065382
30
0.0
0
VERTEX
8
SOLID
10
0.232161
20
0.066885
30
0.0
0
VERTEX
8
SOLID
10
0.234171
20
0.068388
30
0.0
0
VERTEX
8
SOLID
10
0.234171
20
0.069891
30
0.0
0
VERTEX
8
SOLID
10
0.236181
20
0.071394
30
0.0
0
VERTEX
8
SOLID
10
0.236181
20
0.072897
30
0.0
0
VERTEX
8
SOLID
10
0.236181
20
0.074400
30
0.0
0
VERTEX
8
SOLID
10
0.236181
20
0.075903
30
0.0
0
VERTEX
8
SOLID
10
0.236181
20
0.077406
30
0.0
0
VERTEX
8
SOLID
10
0.236181
20
0.078909
30
0.0
0
VERTEX
8
SOLID
10
0.236181
20
0.080412
30
0.0
0
VERTEX
8
SOLID
10
0.236181
20
0.081915
30
0.0
0
VERTEX
8
SOLID
10
0.236181
20
0.083418
30
0.0
0
VERTEX
8
SOLID
10
0.234171
20
0.084921
30
0.0
0
VERTEX
8
SOLID
10
0.234171
20
0.086424
30
0.0
0
VERTEX
8
SOLID
10
0.234171
20
0.087927
30
0.0
0
VERTEX
8
SOLID
10
0.234171
20
0.089430
30
0.0
0
VERTEX
8
SOLID
10
0.234171
20
0.090933
30
0.0
0
VERTEX
8
SOLID
10
0.234171
20
0.092436
30
0.0
0
VERTEX
8
SOLID
10
0.234171
20
0.093939
30
0.0
0
VERTEX
8
SOLID
10
0.234171
20
0.095442
30
0.0
0
VERTEX
8
SOLID
10
0.232161
20
0.096945
30
0.0
0
VERTEX
8
SOLID
10
0.232161
20
0.098448
30
0.0
0
VERTEX
8
SOLID
10
0.232161
20
0.099952
30
0.0
0
VERTEX
8
SOLID
10
0.232161
20
0.101455
30
0.0
0
VERTEX
8
SOLID
10
0.232161
20
0.102958
30
0.0
0
VERTEX
8
SOLID
10
0.230151
20
0.104461
30
0.0
0
VERTEX
8
SOLID
10
0.230151
20
0.105964
30
0.0
0
VERTEX
8
SOLID
10
0.228141
20
0.107467
30
0.0
0
VERTEX
8
SOLID
10
0.226131
20
0.108970
30
0.0
0
VERTEX
8
SOLID
10
0.226131
20
0.110473
30
0.0
0
VERTEX
8
SOLID
10
0.224121
20
0.111976
30
0.0
0
VERTEX
8
SOLID
10
0.222111
20
0.113479
30
0.0
0
VERTEX
8
SOLID
10
0.220101
20
0.114982
30
0.0
0
VERTEX
8
SOLID
10
0.218090
20
0.116485
30
0.0
0
VERTEX
8
SOLID
10
0.216080
20
0.117988
30
0.0
0
VERTEX
8
SOLID
10
0.216080
20
0.119491
30
0.0
0
VERTEX
8
SOLID
10
0.214070
20
0.120994
30
0.0
0
VERTEX
8
SOLID
10
0.212060
20
0.122497
30
0.0
0
VERTEX
8
SOLID
10
0.212060
20
0.124000
30
0.0
0
VERTEX
8
SOLID
10
0.210050
20
0.125503
30
0.0
0
VERTEX
8
SOLID
10
0.208040
20
0.127006
30
0.0
0
VERTEX
8
SOLID
10
0.206030
20
0.127006
30
0.0
0
VERTEX
8
SOLID
10
0.204020
20
0.128509
30
0.0
0
VERTEX
8
SOLID
10
0.202010
20
0.128509
30
0.0
0
VERTEX
8
SOLID
10
0.200000
20
0.128509
30
0.0
0
VERTEX
8
SOLID
10
0.197990
20
0.128509
30
0.0
0
VERTEX
8
SOLID
10
0.195980
20
0.130012
30
0.0
0
VERTEX
8
SOLID
10
0.193970
20
0.130012
30
0.0
0
VERTEX
8
SOLID
10
0.191960
20
0.131515
30
0.0
0
VERTEX
8
SOLID
10
0.189950
20
0.131515
30
0.0
0
VERTEX
8
SOLID
10
0.187940
20
0.130012
30
0.0
0
VERTEX
8
SOLID
10
0.185930
20
0.130012
30
0.0
0
VERTEX
8
SOLID
10
0.183920
20
0.128509
30
0.0
0
VERTEX
8
SOLID
10
0.181910
20
0.128509
30
0.0
0
VERTEX
8
SOLID
10
0.179899
20
0.127006
30
0.0
0
VERTEX
8
SOLID
10
0.177889
20
0.125503
30
0.0
0
VERTEX
8
SOLID
10
0.175879
20
0.127006
30
0.0
0
VERTEX
8
SOLID
10
0.173869
20
0.125503
30
0.0
0
VERTEX
8
SOLID
10
0.171859
20
0.124000
30
0.0
0
VERTEX
8
SOLID
10
0.169849
20
0.124000
30
0.0
0
VERTEX
8
SOLID
10
0.167839
20
0.124000
30
0.0
0
VERTEX
8
SOLID
10
0.165829
20
0.124000
30
0.0
0
VERTEX
8
SOLID
10
0.163819
20
0.122497
30
0.0
0
VERTEX
8
SOLID
10
0.161809
20
0.120994
30
0.0
0
VERTEX
8
SOLID
10
0.159799
20
0.120994
30
0.0
0
VERTEX
8
SOLID
10
0.157789
20
0.119491
30
0.0
0
VERTEX
8
SOLID
10
0.157789
20
0.117988
30
0.0
0
VERTEX
8
SOLID
10
0.155779
20
0.116485
30
0.0
0
VERTEX
8
SOLID
10
0.153769
20
0.116485
30
0.0
0
VERTEX
8
SOLID
10
0.151759
20
0.114982
30
0.0
0
VERTEX
8
SOLID
10
0.153769
20
0.113479
30
0.0
0
VERTEX
8
SOLID
10
0.151759
20
0.111976
30
0.0
0
VERTEX
8
SOLID
10
0.151759
20
0.110473
30
0.0
0
VERTEX
8
SOLID
10
0.149749
20
0.108970
30
0.0
0
VERTEX
8
SOLID
10
0.147739
20
0.108970
30
0.0
0
VERTEX
8
SOLID
10
0.147739
20
0.107467
30
0.0
0
VERTEX
8
SOLID
10
0.147739
20
0.105964
30
0.0
0
VERTEX
8
SOLID
10
0.147739
20
0.104461
30
0.0
0
VERTEX
8
SOLID
10
0.145729
20
0.102958
30
0.0
0
VERTEX
8
SOLID
10
0.143719
20
0.102958
30
0.0
0
VERTEX
8
SOLID
10
0.143719
20
0.101455
30
0.0
0
VERTEX
8
SOLID
10
0.143719
20
0.099952
30
0.0
0
VERTEX
8
SOLID
10
0.143719
20
0.098448
30
0.0
0
VERTEX
8
SOLID
10
0.143719
20
0.096945
30
0.0
0
VERTEX
8
SOLID
10
0.141709
20
0.095442
30
0.0
0
VERTEX
8
SOLID
10
0.139698
20
0.095442
30
0.0
0
VERTEX
8
SOLID
10
0.139698
20
0.093939
30
0.0
0
VERTEX
8
SOLID
10
0.139698
20
0.092436
30
0.0
0
VERTEX
8
SOLID
10
0.141709
20
0.090933
30
0.0
0
VERTEX
8
SOLID
10
0.141709
20
0.089430
30
0.0
0
VERTEX
8
SOLID
10
0.143719
20
0.087927
30
0.0
0
VERTEX
8
SOLID
10
0.143719
20
0.086424
30
0.0
0
VERTEX
8
SOLID
10
0.141709
20
0.084921
30
0.0
0
VERTEX
8
SOLID
10
0.139698
20
0.084921
30
0.0
0
VERTEX
8
SOLID
10
0.139698
20
0.083418
30
0.0
0
SEQEND
0
ENDSEC
0
EOF
