0
SECTION
2
HEADER
0
ENDSEC
0
SECTION
2
ENTITIES
0
POLYLINE
8
SOLID
66
1
70
1
0
VERTEX
8
SOLID
10
0.191960
20
0.092436
30
0.0
0
VERTEX
8
SOLID
10
0.193970
20
0.090933
30
0.0
0
VERTEX
8
SOLID
10
0.195980
20
0.089430
30
0.0
0
VERTEX
8
SOLID
10
0.195980
20
0.087927
30
0.0
0
VERTEX
8
SOLID
10
0.195980
20
0.086424
30
0.0
0
VERTEX
8
SOLID
10
0.195980
20
0.084921
30
0.0
0
VERTEX
8
SOLID
10
0.197990
20
0.083418
30
0.0
0
VERTEX
8
SOLID
10
0.197990
20
0.081915
30
0.0
0
VERTEX
8
SOLID
10
0.200000
20
0.080412
30
0.0
0
VERTEX
8
SOLID
10
0.200000
20
0.081915
30
0.0
0
VERTEX
8
SOLID
10
0.200000
20
0.083418
30
0.0
0
VERTEX
8
SOLID
10
0.200000
20
0.084921
30
0.0
0
VERTEX
8
SOLID
10
0.202010
20
0.086424
30
0.0
0
VERTEX
8
SOLID
10
0.204020
20
0.084921
30
0.0
0
VERTEX
8
SOLID
10
0.206030
20
0.084921
30
0.0
0
VERTEX
8
SOLID
10
0.206030
20
0.086424
30
0.0
0
VERTEX
8
SOLID
10
0.206030
20
0.087927
30
0.0
0
VERTEX
8
SOLID
10
0.206030
20
0.089430
30
0.0
0
VERTEX
8
SOLID
10
0.206030
20
0.090933
30
0.0
0
VERTEX
8
SOLID
10
0.206030
20
0.092436
30
0.0
0
VERTEX
8
SOLID
10
0.208040
20
0.093939
30
0.0
0
VERTEX
8
SOLID
10
0.210050
20
0.095442
30
0.0
0
VERTEX
8
SOLID
10
0.210050
20
0.096945
30
0.0
0
VERTEX
8
SOLID
10
0.208040
20
0.098448
30
0.0
0
VERTEX
8
SOLID
10
0.206030
20
0.098448
30
0.0
0
VERTEX
8
SOLID
10
0.204020
20
0.098448
30
0.0
0
VERTEX
8
SOLID
10
0.202010
20
0.096945
30
0.0
0
VERTEX
8
SOLID
10
0.200000
20
0.098448
30
0.0
0
VERTEX
8
SOLID
10
0.197990
20
0.096945
30
0.0
0
VERTEX
8
SOLID
10
0.195980
20
0.096945
30
0.0
0
VERTEX
8
SOLID
10
0.193970
20
0.095442
30
0.0
0
VERTEX
8
SOLID
10
0.191960
20
0.093939
30
0.0
0
VERTEX
8
SOLID
10
0.191960
20
0.092436
30
0.0
0
SEQEND
0
ENDSEC
0
EOF
