0
SECTION
2
HEADER
0
ENDSEC
0
SECTION
2
ENTITIES
0
POLYLINE
8
PORE
66
1
70
1
0
VERTEX
8
PORE
10
0.001005
20
0.000752
30
0.0
0
VERTEX
8
PORE
10
0.003015
20
0.000752
30
0.0
0
VERTEX
8
PORE
10
0.005025
20
0.000752
30
0.0
0
VERTEX
8
PORE
10
0.007035
20
0.000752
30
0.0
0
VERTEX
8
PORE
10
0.009045
20
0.000752
30
0.0
0
VERTEX
8
PORE
10
0.011055
20
0.000752
30
0.0
0
VERTEX
8
PORE
10
0.013065
20
0.000752
30
0.0
0
VERTEX
8
PORE
10
0.015075
20
0.000752
30
0.0
0
VERTEX
8
PORE
10
0.017085
20
0.000752
30
0.0
0
VERTEX
8
PORE
10
0.019095
20
0.000752
30
0.0
0
VERTEX
8
PORE
10
0.021106
20
0.000752
30
0.0
0
VERTEX
8
PORE
10
0.023116
20
0.000752
30
0.0
0
VERTEX
8
PORE
10
0.025126
20
0.000752
30
0.0
0
VERTEX
8
PORE
10
0.027136
20
0.000752
30
0.0
0
VERTEX
8
PORE
10
0.029146
20
0.000752
30
0.0
0
VERTEX
8
PORE
10
0.031156
20
0.000752
30
0.0
0
VERTEX
8
PORE
10
0.033166
20
0.000752
30
0.0
0
VERTEX
8
PORE
10
0.035176
20
0.000752
30
0.0
0
VERTEX
8
PORE
10
0.037186
20
0.000752
30
0.0
0
VERTEX
8
PORE
10
0.039196
20
0.000752
30
0.0
0
VERTEX
8
PORE
10
0.041206
20
0.000752
30
0.0
0
VERTEX
8
PORE
10
0.043216
20
0.000752
30
0.0
0
VERTEX
8
PORE
10
0.045226
20
0.000752
30
0.0
0
VERTEX
8
PORE
10
0.047236
20
0.000752
30
0.0
0
VERTEX
8
PORE
10
0.049246
20
0.000752
30
0.0
0
VERTEX
8
PORE
10
0.051256
20
0.000752
30
0.0
0
VERTEX
8
PORE
10
0.053266
20
0.000752
30
0.0
0
VERTEX
8
PORE
10
0.055276
20
0.000752
30
0.0
0
VERTEX
8
PORE
10
0.057286
20
0.000752
30
0.0
0
VERTEX
8
PORE
10
0.059296
20
0.000752
30
0.0
0
VERTEX
8
PORE
10
0.061307
20
0.000752
30
0.0
0
VERTEX
8
PORE
10
0.063317
20
0.000752
30
0.0
0
VERTEX
8
PORE
10
0.065327
20
0.000752
30
0.0
0
VERTEX
8
PORE
10
0.067337
20
0.000752
30
0.0
0
VERTEX
8
PORE
10
0.069347
20
0.000752
30
0.0
0
VERTEX
8
PORE
10
0.071357
20
0.000752
30
0.0
0
VERTEX
8
PORE
10
0.073367
20
0.000752
30
0.0
0
VERTEX
8
PORE
10
0.075377
20
0.000752
30
0.0
0
VERTEX
8
PORE
10
0.077387
20
0.000752
30
0.0
0
VERTEX
8
PORE
10
0.079397
20
0.000752
30
0.0
0
VERTEX
8
PORE
10
0.081407
20
0.000752
30
0.0
0
VERTEX
8
PORE
10
0.083417
20
0.000752
30
0.0
0
VERTEX
8
PORE
10
0.085427
20
0.000752
30
0.0
0
VERTEX
8
PORE
10
0.087437
20
0.000752
30
0.0
0
VERTEX
8
PORE
10
0.089447
20
0.000752
30
0.0
0
VERTEX
8
PORE
10
0.091457
20
0.000752
30
0.0
0
VERTEX
8
PORE
10
0.093467
20
0.000752
30
0.0
0
VERTEX
8
PORE
10
0.095477
20
0.000752
30
0.0
0
VERTEX
8
PORE
10
0.097487
20
0.000752
30
0.0
0
VERTEX
8
PORE
10
0.099497
20
0.000752
30
0.0
0
VERTEX
8
PORE
10
0.101508
20
0.000752
30
0.0
0
VERTEX
8
PORE
10
0.103518
20
0.000752
30
0.0
0
VERTEX
8
PORE
10
0.105528
20
0.000752
30
0.0
0
VERTEX
8
PORE
10
0.107538
20
0.000752
30
0.0
0
VERTEX
8
PORE
10
0.109548
20
0.000752
30
0.0
0
VERTEX
8
PORE
10
0.111558
20
0.000752
30
0.0
0
VERTEX
8
PORE
10
0.113568
20
0.000752
30
0.0
0
VERTEX
8
PORE
10
0.115578
20
0.000752
30
0.0
0
VERTEX
8
PORE
10
0.117588
20
0.000752
30
0.0
0
VERTEX
8
PORE
10
0.119598
20
0.000752
30
0.0
0
VERTEX
8
PORE
10
0.121608
20
0.000752
30
0.0
0
VERTEX
8
PORE
10
0.123618
20
0.000752
30
0.0
0
VERTEX
8
PORE
10
0.125628
20
0.000752
30
0.0
0
VERTEX
8
PORE
10
0.127638
20
0.000752
30
0.0
0
VERTEX
8
PORE
10
0.129648
20
0.000752
30
0.0
0
VERTEX
8
PORE
10
0.131658
20
0.000752
30
0.0
0
VERTEX
8
PORE
10
0.133668
20
0.000752
30
0.0
0
VERTEX
8
PORE
10
0.135678
20
0.000752
30
0.0
0
VERTEX
8
PORE
10
0.137688
20
0.000752
30
0.0
0
VERTEX
8
PORE
10
0.139698
20
0.000752
30
0.0
0
VERTEX
8
PORE
10
0.141709
20
0.000752
30
0.0
0
VERTEX
8
PORE
10
0.143719
20
0.000752
30
0.0
0
VERTEX
8
PORE
10
0.145729
20
0.000752
30
0.0
0
VERTEX
8
PORE
10
0.147739
20
0.000752
30
0.0
0
VERTEX
8
PORE
10
0.149749
20
0.000752
30
0.0
0
VERTEX
8
PORE
10
0.151759
20
0.000752
30
0.0
0
VERTEX
8
PORE
10
0.153769
20
0.000752
30
0.0
0
VERTEX
8
PORE
10
0.155779
20
0.000752
30
0.0
0
VERTEX
8
PORE
10
0.157789
20
0.000752
30
0.0
0
VERTEX
8
PORE
10
0.159799
20
0.000752
30
0.0
0
VERTEX
8
PORE
10
0.161809
20
0.000752
30
0.0
0
VERTEX
8
PORE
10
0.163819
20
0.000752
30
0.0
0
VERTEX
8
PORE
10
0.165829
20
0.000752
30
0.0
0
VERTEX
8
PORE
10
0.167839
20
0.000752
30
0.0
0
VERTEX
8
PORE
10
0.169849
20
0.000752
30
0.0
0
VERTEX
8
PORE
10
0.171859
20
0.000752
30
0.0
0
VERTEX
8
PORE
10
0.173869
20
0.000752
30
0.0
0
VERTEX
8
PORE
10
0.175879
20
0.000752
30
0.0
0
VERTEX
8
PORE
10
0.177889
20
0.000752
30
0.0
0
VERTEX
8
PORE
10
0.179899
20
0.000752
30
0.0
0
VERTEX
8
PORE
10
0.181910
20
0.000752
30
0.0
0
VERTEX
8
PORE
10
0.183920
20
0.000752
30
0.0
0
VERTEX
8
PORE
10
0.185930
20
0.000752
30
0.0
0
VERTEX
8
PORE
10
0.187940
20
0.000752
30
0.0
0
VERTEX
8
PORE
10
0.189950
20
0.000752
30
0.0
0
VERTEX
8
PORE
10
0.191960
20
0.000752
30
0.0
0
VERTEX
8
PORE
10
0.193970
20
0.000752
30
0.0
0
VERTEX
8
PORE
10
0.195980
20
0.000752
30
0.0
0
VERTEX
8
PORE
10
0.197990
20
0.000752
30
0.0
0
VERTEX
8
PORE
10
0.200000
20
0.000752
30
0.0
0
VERTEX
8
PORE
10
0.202010
20
0.000752
30
0.0
0
VERTEX
8
PORE
10
0.204020
20
0.000752
30
0.0
0
VERTEX
8
PORE
10
0.206030
20
0.000752
30
0.0
0
VERTEX
8
PORE
10
0.208040
20
0.000752
30
0.0
0
VERTEX
8
PORE
10
0.210050
20
0.000752
30
0.0
0
VERTEX
8
PORE
10
0.212060
20
0.000752
30
0.0
0
VERTEX
8
PORE
10
0.214070
20
0.000752
30
0.0
0
VERTEX
8
PORE
10
0.216080
20
0.000752
30
0.0
0
VERTEX
8
PORE
10
0.218090
20
0.000752
30
0.0
0
VERTEX
8
PORE
10
0.220101
20
0.000752
30
0.0
0
VERTEX
8
PORE
10
0.222111
20
0.000752
30
0.0
0
VERTEX
8
PORE
10
0.224121
20
0.000752
30
0.0
0
VERTEX
8
PORE
10
0.226131
20
0.000752
30
0.0
0
VERTEX
8
PORE
10
0.228141
20
0.000752
30
0.0
0
VERTEX
8
PORE
10
0.230151
20
0.000752
30
0.0
0
VERTEX
8
PORE
10
0.232161
20
0.000752
30
0.0
0
VERTEX
8
PORE
10
0.234171
20
0.000752
30
0.0
0
VERTEX
8
PORE
10
0.236181
20
0.000752
30
0.0
0
VERTEX
8
PORE
10
0.238191
20
0.000752
30
0.0
0
VERTEX
8
PORE
10
0.240201
20
0.000752
30
0.0
0
VERTEX
8
PORE
10
0.242211
20
0.000752
30
0.0
0
VERTEX
8
PORE
10
0.244221
20
0.000752
30
0.0
0
VERTEX
8
PORE
10
0.246231
20
0.000752
30
0.0
0
VERTEX
8
PORE
10
0.248241
20
0.000752
30
0.0
0
VERTEX
8
PORE
10
0.250251
20
0.000752
30
0.0
0
VERTEX
8
PORE
10
0.252261
20
0.000752
30
0.0
0
VERTEX
8
PORE
10
0.254271
20
0.000752
30
0.0
0
VERTEX
8
PORE
10
0.256281
20
0.000752
30
0.0
0
VERTEX
8
PORE
10
0.258291
20
0.000752
30
0.0
0
VERTEX
8
PORE
10
0.260302
20
0.000752
30
0.0
0
VERTEX
8
PORE
10
0.262312
20
0.000752
30
0.0
0
VERTEX
8
PORE
10
0.264322
20
0.000752
30
0.0
0
VERTEX
8
PORE
10
0.266332
20
0.000752
30
0.0
0
VERTEX
8
PORE
10
0.268342
20
0.000752
30
0.0
0
VERTEX
8
PORE
10
0.270352
20
0.000752
30
0.0
0
VERTEX
8
PORE
10
0.272362
20
0.000752
30
0.0
0
VERTEX
8
PORE
10
0.274372
20
0.000752
30
0.0
0
VERTEX
8
PORE
10
0.276382
20
0.000752
30
0.0
0
VERTEX
8
PORE
10
0.278392
20
0.000752
30
0.0
0
VERTEX
8
PORE
10
0.280402
20
0.000752
30
0.0
0
VERTEX
8
PORE
10
0.282412
20
0.000752
30
0.0
0
VERTEX
8
PORE
10
0.284422
20
0.000752
30
0.0
0
VERTEX
8
PORE
10
0.286432
20
0.000752
30
0.0
0
VERTEX
8
PORE
10
0.288442
20
0.000752
30
0.0
0
VERTEX
8
PORE
10
0.290452
20
0.000752
30
0.0
0
VERTEX
8
PORE
10
0.292462
20
0.000752
30
0.0
0
VERTEX
8
PORE
10
0.294472
20
0.000752
30
0.0
0
VERTEX
8
PORE
10
0.296482
20
0.000752
30
0.0
0
VERTEX
8
PORE
10
0.298492
20
0.000752
30
0.0
0
VERTEX
8
PORE
10
0.300503
20
0.000752
30
0.0
0
VERTEX
8
PORE
10
0.302513
20
0.000752
30
0.0
0
VERTEX
8
PORE
10
0.304523
20
0.000752
30
0.0
0
VERTEX
8
PORE
10
0.306533
20
0.000752
30
0.0
0
VERTEX
8
PORE
10
0.308543
20
0.000752
30
0.0
0
VERTEX
8
PORE
10
0.310553
20
0.000752
30
0.0
0
VERTEX
8
PORE
10
0.312563
20
0.000752
30
0.0
0
VERTEX
8
PORE
10
0.314573
20
0.000752
30
0.0
0
VERTEX
8
PORE
10
0.316583
20
0.000752
30
0.0
0
VERTEX
8
PORE
10
0.318593
20
0.000752
30
0.0
0
VERTEX
8
PORE
10
0.320603
20
0.000752
30
0.0
0
VERTEX
8
PORE
10
0.322613
20
0.000752
30
0.0
0
VERTEX
8
PORE
10
0.324623
20
0.000752
30
0.0
0
VERTEX
8
PORE
10
0.326633
20
0.000752
30
0.0
0
VERTEX
8
PORE
10
0.328643
20
0.000752
30
0.0
0
VERTEX
8
PORE
10
0.330653
20
0.000752
30
0.0
0
VERTEX
8
PORE
10
0.332663
20
0.000752
30
0.0
0
VERTEX
8
PORE
10
0.334673
20
0.000752
30
0.0
0
VERTEX
8
PORE
10
0.336683
20
0.000752
30
0.0
0
VERTEX
8
PORE
10
0.338693
20
0.000752
30
0.0
0
VERTEX
8
PORE
10
0.340704
20
0.000752
30
0.0
0
VERTEX
8
PORE
10
0.342714
20
0.000752
30
0.0
0
VERTEX
8
PORE
10
0.344724
20
0.000752
30
0.0
0
VERTEX
8
PORE
10
0.346734
20
0.000752
30
0.0
0
VERTEX
8
PORE
10
0.348744
20
0.000752
30
0.0
0
VERTEX
8
PORE
10
0.350754
20
0.000752
30
0.0
0
VERTEX
8
PORE
10
0.352764
20
0.000752
30
0.0
0
VERTEX
8
PORE
10
0.354774
20
0.000752
30
0.0
0
VERTEX
8
PORE
10
0.356784
20
0.000752
30
0.0
0
VERTEX
8
PORE
10
0.358794
20
0.000752
30
0.0
0
VERTEX
8
PORE
10
0.360804
20
0.000752
30
0.0
0
VERTEX
8
PORE
10
0.362814
20
0.000752
30
0.0
0
VERTEX
8
PORE
10
0.364824
20
0.000752
30
0.0
0
VERTEX
8
PORE
10
0.366834
20
0.000752
30
0.0
0
VERTEX
8
PORE
10
0.368844
20
0.000752
30
0.0
0
VERTEX
8
PORE
10
0.370854
20
0.000752
30
0.0
0
VERTEX
8
PORE
10
0.372864
20
0.000752
30
0.0
0
VERTEX
8
PORE
10
0.374874
20
0.000752
30
0.0
0
VERTEX
8
PORE
10
0.376884
20
0.000752
30
0.0
0
VERTEX
8
PORE
10
0.378894
20
0.000752
30
0.0
0
VERTEX
8
PORE
10
0.380905
20
0.000752
30
0.0
0
VERTEX
8
PORE
10
0.382915
20
0.000752
30
0.0
0
VERTEX
8
PORE
10
0.384925
20
0.000752
30
0.0
0
VERTEX
8
PORE
10
0.386935
20
0.000752
30
0.0
0
VERTEX
8
PORE
10
0.388945
20
0.000752
30
0.0
0
VERTEX
8
PORE
10
0.390955
20
0.000752
30
0.0
0
VERTEX
8
PORE
10
0.392965
20
0.000752
30
0.0
0
VERTEX
8
PORE
10
0.394975
20
0.000752
30
0.0
0
VERTEX
8
PORE
10
0.396985
20
0.000752
30
0.0
0
VERTEX
8
PORE
10
0.398995
20
0.000752
30
0.0
0
VERTEX
8
PORE
10
0.401005
20
0.000752
30
0.0
0
VERTEX
8
PORE
10
0.401005
20
0.002255
30
0.0
0
VERTEX
8
PORE
10
0.401005
20
0.003758
30
0.0
0
VERTEX
8
PORE
10
0.401005
20
0.005261
30
0.0
0
VERTEX
8
PORE
10
0.401005
20
0.006764
30
0.0
0
VERTEX
8
PORE
10
0.401005
20
0.008267
30
0.0
0
VERTEX
8
PORE
10
0.401005
20
0.009770
30
0.0
0
VERTEX
8
PORE
10
0.401005
20
0.011273
30
0.0
0
VERTEX
8
PORE
10
0.401005
20
0.012776
30
0.0
0
VERTEX
8
PORE
10
0.401005
20
0.014279
30
0.0
0
VERTEX
8
PORE
10
0.401005
20
0.015782
30
0.0
0
VERTEX
8
PORE
10
0.401005
20
0.017285
30
0.0
0
VERTEX
8
PORE
10
0.401005
20
0.018788
30
0.0
0
VERTEX
8
PORE
10
0.401005
20
0.020291
30
0.0
0
VERTEX
8
PORE
10
0.401005
20
0.021794
30
0.0
0
VERTEX
8
PORE
10
0.401005
20
0.023297
30
0.0
0
VERTEX
8
PORE
10
0.401005
20
0.024800
30
0.0
0
VERTEX
8
PORE
10
0.401005
20
0.026303
30
0.0
0
VERTEX
8
PORE
10
0.401005
20
0.027806
30
0.0
0
VERTEX
8
PORE
10
0.401005
20
0.029309
30
0.0
0
VERTEX
8
PORE
10
0.401005
20
0.030812
30
0.0
0
VERTEX
8
PORE
10
0.401005
20
0.032315
30
0.0
0
VERTEX
8
PORE
10
0.401005
20
0.033818
30
0.0
0
VERTEX
8
PORE
10
0.401005
20
0.035321
30
0.0
0
VERTEX
8
PORE
10
0.401005
20
0.036824
30
0.0
0
VERTEX
8
PORE
10
0.401005
20
0.038327
30
0.0
0
VERTEX
8
PORE
10
0.401005
20
0.039830
30
0.0
0
VERTEX
8
PORE
10
0.401005
20
0.041333
30
0.0
0
VERTEX
8
PORE
10
0.401005
20
0.042836
30
0.0
0
VERTEX
8
PORE
10
0.401005
20
0.044339
30
0.0
0
VERTEX
8
PORE
10
0.401005
20
0.045842
30
0.0
0
VERTEX
8
PORE
10
0.401005
20
0.047345
30
0.0
0
VERTEX
8
PORE
10
0.401005
20
0.048848
30
0.0
0
VERTEX
8
PORE
10
0.401005
20
0.050352
30
0.0
0
VERTEX
8
PORE
10
0.401005
20
0.051855
30
0.0
0
VERTEX
8
PORE
10
0.401005
20
0.053358
30
0.0
0
VERTEX
8
PORE
10
0.401005
20
0.054861
30
0.0
0
VERTEX
8
PORE
10
0.401005
20
0.056364
30
0.0
0
VERTEX
8
PORE
10
0.401005
20
0.057867
30
0.0
0
VERTEX
8
PORE
10
0.401005
20
0.059370
30
0.0
0
VERTEX
8
PORE
10
0.401005
20
0.060873
30
0.0
0
VERTEX
8
PORE
10
0.401005
20
0.062376
30
0.0
0
VERTEX
8
PORE
10
0.401005
20
0.063879
30
0.0
0
VERTEX
8
PORE
10
0.401005
20
0.065382
30
0.0
0
VERTEX
8
PORE
10
0.401005
20
0.066885
30
0.0
0
VERTEX
8
PORE
10
0.401005
20
0.068388
30
0.0
0
VERTEX
8
PORE
10
0.401005
20
0.069891
30
0.0
0
VERTEX
8
PORE
10
0.401005
20
0.071394
30
0.0
0
VERTEX
8
PORE
10
0.401005
20
0.072897
30
0.0
0
VERTEX
8
PORE
10
0.401005
20
0.074400
30
0.0
0
VERTEX
8
PORE
10
0.401005
20
0.075903
30
0.0
0
VERTEX
8
PORE
10
0.401005
20
0.077406
30
0.0
0
VERTEX
8
PORE
10
0.401005
20
0.078909
30
0.0
0
VERTEX
8
PORE
10
0.401005
20
0.080412
30
0.0
0
VERTEX
8
PORE
10
0.401005
20
0.081915
30
0.0
0
VERTEX
8
PORE
10
0.401005
20
0.083418
30
0.0
0
VERTEX
8
PORE
10
0.401005
20
0.084921
30
0.0
0
VERTEX
8
PORE
10
0.401005
20
0.086424
30
0.0
0
VERTEX
8
PORE
10
0.401005
20
0.087927
30
0.0
0
VERTEX
8
PORE
10
0.401005
20
0.089430
30
0.0
0
VERTEX
8
PORE
10
0.401005
20
0.090933
30
0.0
0
VERTEX
8
PORE
10
0.401005
20
0.092436
30
0.0
0
VERTEX
8
PORE
10
0.401005
20
0.093939
30
0.0
0
VERTEX
8
PORE
10
0.401005
20
0.095442
30
0.0
0
VERTEX
8
PORE
10
0.401005
20
0.096945
30
0.0
0
VERTEX
8
PORE
10
0.401005
20
0.098448
30
0.0
0
VERTEX
8
PORE
10
0.401005
20
0.099952
30
0.0
0
VERTEX
8
PORE
10
0.401005
20
0.101455
30
0.0
0
VERTEX
8
PORE
10
0.401005
20
0.102958
30
0.0
0
VERTEX
8
PORE
10
0.401005
20
0.104461
30
0.0
0
VERTEX
8
PORE
10
0.401005
20
0.105964
30
0.0
0
VERTEX
8
PORE
10
0.401005
20
0.107467
30
0.0
0
VERTEX
8
PORE
10
0.401005
20
0.108970
30
0.0
0
VERTEX
8
PORE
10
0.401005
20
0.110473
30
0.0
0
VERTEX
8
PORE
10
0.401005
20
0.111976
30
0.0
0
VERTEX
8
PORE
10
0.401005
20
0.113479
30
0.0
0
VERTEX
8
PORE
10
0.401005
20
0.114982
30
0.0
0
VERTEX
8
PORE
10
0.401005
20
0.116485
30
0.0
0
VERTEX
8
PORE
10
0.401005
20
0.117988
30
0.0
0
VERTEX
8
PORE
10
0.401005
20
0.119491
30
0.0
0
VERTEX
8
PORE
10
0.401005
20
0.120994
30
0.0
0
VERTEX
8
PORE
10
0.401005
20
0.122497
30
0.0
0
VERTEX
8
PORE
10
0.401005
20
0.124000
30
0.0
0
VERTEX
8
PORE
10
0.401005
20
0.125503
30
0.0
0
VERTEX
8
PORE
10
0.401005
20
0.127006
30
0.0
0
VERTEX
8
PORE
10
0.401005
20
0.128509
30
0.0
0
VERTEX
8
PORE
10
0.401005
20
0.130012
30
0.0
0
VERTEX
8
PORE
10
0.401005
20
0.131515
30
0.0
0
VERTEX
8
PORE
10
0.401005
20
0.133018
30
0.0
0
VERTEX
8
PORE
10
0.401005
20
0.134521
30
0.0
0
VERTEX
8
PORE
10
0.401005
20
0.136024
30
0.0
0
VERTEX
8
PORE
10
0.401005
20
0.137527
30
0.0
0
VERTEX
8
PORE
10
0.401005
20
0.139030
30
0.0
0
VERTEX
8
PORE
10
0.401005
20
0.140533
30
0.0
0
VERTEX
8
PORE
10
0.401005
20
0.142036
30
0.0
0
VERTEX
8
PORE
10
0.401005
20
0.143539
30
0.0
0
VERTEX
8
PORE
10
0.401005
20
0.145042
30
0.0
0
VERTEX
8
PORE
10
0.401005
20
0.146545
30
0.0
0
VERTEX
8
PORE
10
0.401005
20
0.148048
30
0.0
0
VERTEX
8
PORE
10
0.401005
20
0.149552
30
0.0
0
VERTEX
8
PORE
10
0.398995
20
0.149552
30
0.0
0
VERTEX
8
PORE
10
0.396985
20
0.149552
30
0.0
0
VERTEX
8
PORE
10
0.394975
20
0.149552
30
0.0
0
VERTEX
8
PORE
10
0.392965
20
0.149552
30
0.0
0
VERTEX
8
PORE
10
0.390955
20
0.149552
30
0.0
0
VERTEX
8
PORE
10
0.388945
20
0.149552
30
0.0
0
VERTEX
8
PORE
10
0.386935
20
0.149552
30
0.0
0
VERTEX
8
PORE
10
0.384925
20
0.149552
30
0.0
0
VERTEX
8
PORE
10
0.382915
20
0.149552
30
0.0
0
VERTEX
8
PORE
10
0.380905
20
0.149552
30
0.0
0
VERTEX
8
PORE
10
0.378894
20
0.149552
30
0.0
0
VERTEX
8
PORE
10
0.376884
20
0.149552
30
0.0
0
VERTEX
8
PORE
10
0.374874
20
0.149552
30
0.0
0
VERTEX
8
PORE
10
0.372864
20
0.149552
30
0.0
0
VERTEX
8
PORE
10
0.370854
20
0.149552
30
0.0
0
VERTEX
8
PORE
10
0.368844
20
0.149552
30
0.0
0
VERTEX
8
PORE
10
0.366834
20
0.149552
30
0.0
0
VERTEX
8
PORE
10
0.364824
20
0.149552
30
0.0
0
VERTEX
8
PORE
10
0.362814
20
0.149552
30
0.0
0
VERTEX
8
PORE
10
0.360804
20
0.149552
30
0.0
0
VERTEX
8
PORE
10
0.358794
20
0.149552
30
0.0
0
VERTEX
8
PORE
10
0.356784
20
0.149552
30
0.0
0
VERTEX
8
PORE
10
0.354774
20
0.149552
30
0.0
0
VERTEX
8
PORE
10
0.352764
20
0.149552
30
0.0
0
VERTEX
8
PORE
10
0.350754
20
0.149552
30
0.0
0
VERTEX
8
PORE
10
0.348744
20
0.149552
30
0.0
0
VERTEX
8
PORE
10
0.346734
20
0.149552
30
0.0
0
VERTEX
8
PORE
10
0.344724
20
0.149552
30
0.0
0
VERTEX
8
PORE
10
0.342714
20
0.149552
30
0.0
0
VERTEX
8
PORE
10
0.340704
20
0.149552
30
0.0
0
VERTEX
8
PORE
10
0.338693
20
0.149552
30
0.0
0
VERTEX
8
PORE
10
0.336683
20
0.149552
30
0.0
0
VERTEX
8
PORE
10
0.334673
20
0.149552
30
0.0
0
VERTEX
8
PORE
10
0.332663
20
0.149552
30
0.0
0
VERTEX
8
PORE
10
0.330653
20
0.149552
30
0.0
0
VERTEX
8
PORE
10
0.328643
20
0.149552
30
0.0
0
VERTEX
8
PORE
10
0.326633
20
0.149552
30
0.0
0
VERTEX
8
PORE
10
0.324623
20
0.149552
30
0.0
0
VERTEX
8
PORE
10
0.322613
20
0.149552
30
0.0
0
VERTEX
8
PORE
10
0.320603
20
0.149552
30
0.0
0
VERTEX
8
PORE
10
0.318593
20
0.149552
30
0.0
0
VERTEX
8
PORE
10
0.316583
20
0.149552
30
0.0
0
VERTEX
8
PORE
10
0.314573
20
0.149552
30
0.0
0
VERTEX
8
PORE
10
0.312563
20
0.149552
30
0.0
0
VERTEX
8
PORE
10
0.310553
20
0.149552
30
0.0
0
VERTEX
8
PORE
10
0.308543
20
0.149552
30
0.0
0
VERTEX
8
PORE
10
0.306533
20
0.149552
30
0.0
0
VERTEX
8
PORE
10
0.304523
20
0.149552
30
0.0
0
VERTEX
8
PORE
10
0.302513
20
0.149552
30
0.0
0
VERTEX
8
PORE
10
0.300503
20
0.149552
30
0.0
0
VERTEX
8
PORE
10
0.298492
20
0.149552
30
0.0
0
VERTEX
8
PORE
10
0.296482
20
0.149552
30
0.0
0
VERTEX
8
PORE
10
0.294472
20
0.149552
30
0.0
0
VERTEX
8
PORE
10
0.292462
20
0.149552
30
0.0
0
VERTEX
8
PORE
10
0.290452
20
0.149552
30
0.0
0
VERTEX
8
PORE
10
0.288442
20
0.149552
30
0.0
0
VERTEX
8
PORE
10
0.286432
20
0.149552
30
0.0
0
VERTEX
8
PORE
10
0.284422
20
0.149552
30
0.0
0
VERTEX
8
PORE
10
0.282412
20
0.149552
30
0.0
0
VERTEX
8
PORE
10
0.280402
20
0.149552
30
0.0
0
VERTEX
8
PORE
10
0.278392
20
0.149552
30
0.0
0
VERTEX
8
PORE
10
0.276382
20
0.149552
30
0.0
0
VERTEX
8
PORE
10
0.274372
20
0.149552
30
0.0
0
VERTEX
8
PORE
10
0.272362
20
0.149552
30
0.0
0
VERTEX
8
PORE
10
0.270352
20
0.149552
30
0.0
0
VERTEX
8
PORE
10
0.268342
20
0.149552
30
0.0
0
VERTEX
8
PORE
10
0.266332
20
0.149552
30
0.0
0
VERTEX
8
PORE
10
0.264322
20
0.149552
30
0.0
0
VERTEX
8
PORE
10
0.262312
20
0.149552
30
0.0
0
VERTEX
8
PORE
10
0.260302
20
0.149552
30
0.0
0
VERTEX
8
PORE
10
0.258291
20
0.149552
30
0.0
0
VERTEX
8
PORE
10
0.256281
20
0.149552
30
0.0
0
VERTEX
8
PORE
10
0.254271
20
0.149552
30
0.0
0
VERTEX
8
PORE
10
0.252261
20
0.149552
30
0.0
0
VERTEX
8
PORE
10
0.250251
20
0.149552
30
0.0
0
VERTEX
8
PORE
10
0.248241
20
0.149552
30
0.0
0
VERTEX
8
PORE
10
0.246231
20
0.149552
30
0.0
0
VERTEX
8
PORE
10
0.244221
20
0.149552
30
0.0
0
VERTEX
8
PORE
10
0.242211
20
0.149552
30
0.0
0
VERTEX
8
PORE
10
0.240201
20
0.149552
30
0.0
0
VERTEX
8
PORE
10
0.238191
20
0.149552
30
0.0
0
VERTEX
8
PORE
10
0.236181
20
0.149552
30
0.0
0
VERTEX
8
PORE
10
0.234171
20
0.149552
30
0.0
0
VERTEX
8
PORE
10
0.232161
20
0.149552
30
0.0
0
VERTEX
8
PORE
10
0.230151
20
0.149552
30
0.0
0
VERTEX
8
PORE
10
0.228141
20
0.149552
30
0.0
0
VERTEX
8
PORE
10
0.226131
20
0.149552
30
0.0
0
VERTEX
8
PORE
10
0.224121
20
0.149552
30
0.0
0
VERTEX
8
PORE
10
0.222111
20
0.149552
30
0.0
0
VERTEX
8
PORE
10
0.220101
20
0.149552
30
0.0
0
VERTEX
8
PORE
10
0.218090
20
0.149552
30
0.0
0
VERTEX
8
PORE
10
0.216080
20
0.149552
30
0.0
0
VERTEX
8
PORE
10
0.214070
20
0.149552
30
0.0
0
VERTEX
8
PORE
10
0.212060
20
0.149552
30
0.0
0
VERTEX
8
PORE
10
0.210050
20
0.149552
30
0.0
0
VERTEX
8
PORE
10
0.208040
20
0.149552
30
0.0
0
VERTEX
8
PORE
10
0.206030
20
0.149552
30
0.0
0
VERTEX
8
PORE
10
0.204020
20
0.149552
30
0.0
0
VERTEX
8
PORE
10
0.202010
20
0.149552
30
0.0
0
VERTEX
8
PORE
10
0.200000
20
0.149552
30
0.0
0
VERTEX
8
PORE
10
0.197990
20
0.149552
30
0.0
0
VERTEX
8
PORE
10
0.195980
20
0.149552
30
0.0
0
VERTEX
8
PORE
10
0.193970
20
0.149552
30
0.0
0
VERTEX
8
PORE
10
0.191960
20
0.149552
30
0.0
0
VERTEX
8
PORE
10
0.189950
20
0.149552
30
0.0
0
VERTEX
8
PORE
10
0.187940
20
0.149552
30
0.0
0
VERTEX
8
PORE
10
0.185930
20
0.149552
30
0.0
0
VERTEX
8
PORE
10
0.183920
20
0.149552
30
0.0
0
VERTEX
8
PORE
10
0.181910
20
0.149552
30
0.0
0
VERTEX
8
PORE
10
0.179899
20
0.149552
30
0.0
0
VERTEX
8
PORE
10
0.177889
20
0.149552
30
0.0
0
VERTEX
8
PORE
10
0.175879
20
0.149552
30
0.0
0
VERTEX
8
PORE
10
0.173869
20
0.149552
30
0.0
0
VERTEX
8
PORE
10
0.171859
20
0.149552
30
0.0
0
VERTEX
8
PORE
10
0.169849
20
0.149552
30
0.0
0
VERTEX
8
PORE
10
0.167839
20
0.149552
30
0.0
0
VERTEX
8
PORE
10
0.165829
20
0.149552
30
0.0
0
VERTEX
8
PORE
10
0.163819
20
0.149552
30
0.0
0
VERTEX
8
PORE
10
0.161809
20
0.149552
30
0.0
0
VERTEX
8
PORE
10
0.159799
20
0.149552
30
0.0
0
VERTEX
8
PORE
10
0.157789
20
0.149552
30
0.0
0
VERTEX
8
PORE
10
0.155779
20
0.149552
30
0.0
0
VERTEX
8
PORE
10
0.153769
20
0.149552
30
0.0
0
VERTEX
8
PORE
10
0.151759
20
0.149552
30
0.0
0
VERTEX
8
PORE
10
0.149749
20
0.149552
30
0.0
0
VERTEX
8
PORE
10
0.147739
20
0.149552
30
0.0
0
VERTEX
8
PORE
10
0.145729
20
0.149552
30
0.0
0
VERTEX
8
PORE
10
0.143719
20
0.149552
30
0.0
0
VERTEX
8
PORE
10
0.141709
20
0.149552
30
0.0
0
VERTEX
8
PORE
10
0.139698
20
0.149552
30
0.0
0
VERTEX
8
PORE
10
0.137688
20
0.149552
30
0.0
0
VERTEX
8
PORE
10
0.135678
20
0.149552
30
0.0
0
VERTEX
8
PORE
10
0.133668
20
0.149552
30
0.0
0
VERTEX
8
PORE
10
0.131658
20
0.149552
30
0.0
0
VERTEX
8
PORE
10
0.129648
20
0.149552
30
0.0
0
VERTEX
8
PORE
10
0.127638
20
0.149552
30
0.0
0
VERTEX
8
PORE
10
0.125628
20
0.149552
30
0.0
0
VERTEX
8
PORE
10
0.123618
20
0.149552
30
0.0
0
VERTEX
8
PORE
10
0.121608
20
0.149552
30
0.0
0
VERTEX
8
PORE
10
0.119598
20
0.149552
30
0.0
0
VERTEX
8
PORE
10
0.117588
20
0.149552
30
0.0
0
VERTEX
8
PORE
10
0.115578
20
0.149552
30
0.0
0
VERTEX
8
PORE
10
0.113568
20
0.149552
30
0.0
0
VERTEX
8
PORE
10
0.111558
20
0.149552
30
0.0
0
VERTEX
8
PORE
10
0.109548
20
0.149552
30
0.0
0
VERTEX
8
PORE
10
0.107538
20
0.149552
30
0.0
0
VERTEX
8
PORE
10
0.105528
20
0.149552
30
0.0
0
VERTEX
8
PORE
10
0.103518
20
0.149552
30
0.0
0
VERTEX
8
PORE
10
0.101508
20
0.149552
30
0.0
0
VERTEX
8
PORE
10
0.099497
20
0.149552
30
0.0
0
VERTEX
8
PORE
10
0.097487
20
0.149552
30
0.0
0
VERTEX
8
PORE
10
0.095477
20
0.149552
30
0.0
0
VERTEX
8
PORE
10
0.093467
20
0.149552
30
0.0
0
VERTEX
8
PORE
10
0.091457
20
0.149552
30
0.0
0
VERTEX
8
PORE
10
0.089447
20
0.149552
30
0.0
0
VERTEX
8
PORE
10
0.087437
20
0.149552
30
0.0
0
VERTEX
8
PORE
10
0.085427
20
0.149552
30
0.0
0
VERTEX
8
PORE
10
0.083417
20
0.149552
30
0.0
0
VERTEX
8
PORE
10
0.081407
20
0.149552
30
0.0
0
VERTEX
8
PORE
10
0.079397
20
0.149552
30
0.0
0
VERTEX
8
PORE
10
0.077387
20
0.149552
30
0.0
0
VERTEX
8
PORE
10
0.075377
20
0.149552
30
0.0
0
VERTEX
8
PORE
10
0.073367
20
0.149552
30
0.0
0
VERTEX
8
PORE
10
0.071357
20
0.149552
30
0.0
0
VERTEX
8
PORE
10
0.069347
20
0.149552
30
0.0
0
VERTEX
8
PORE
10
0.067337
20
0.149552
30
0.0
0
VERTEX
8
PORE
10
0.065327
20
0.149552
30
0.0
0
VERTEX
8
PORE
10
0.063317
20
0.149552
30
0.0
0
VERTEX
8
PORE
10
0.061307
20
0.149552
30
0.0
0
VERTEX
8
PORE
10
0.059296
20
0.149552
30
0.0
0
VERTEX
8
PORE
10
0.057286
20
0.149552
30
0.0
0
VERTEX
8
PORE
10
0.055276
20
0.149552
30
0.0
0
VERTEX
8
PORE
10
0.053266
20
0.149552
30
0.0
0
VERTEX
8
PORE
10
0.051256
20
0.149552
30
0.0
0
VERTEX
8
PORE
10
0.049246
20
0.149552
30
0.0
0
VERTEX
8
PORE
10
0.047236
20
0.149552
30
0.0
0
VERTEX
8
PORE
10
0.045226
20
0.149552
30
0.0
0
VERTEX
8
PORE
10
0.043216
20
0.149552
30
0.0
0
VERTEX
8
PORE
10
0.041206
20
0.149552
30
0.0
0
VERTEX
8
PORE
10
0.039196
20
0.149552
30
0.0
0
VERTEX
8
PORE
10
0.037186
20
0.149552
30
0.0
0
VERTEX
8
PORE
10
0.035176
20
0.149552
30
0.0
0
VERTEX
8
PORE
10
0.033166
20
0.149552
30
0.0
0
VERTEX
8
PORE
10
0.031156
20
0.149552
30
0.0
0
VERTEX
8
PORE
10
0.029146
20
0.149552
30
0.0
0
VERTEX
8
PORE
10
0.027136
20
0.149552
30
0.0
0
VERTEX
8
PORE
10
0.025126
20
0.149552
30
0.0
0
VERTEX
8
PORE
10
0.023116
20
0.149552
30
0.0
0
VERTEX
8
PORE
10
0.021106
20
0.149552
30
0.0
0
VERTEX
8
PORE
10
0.019095
20
0.149552
30
0.0
0
VERTEX
8
PORE
10
0.017085
20
0.149552
30
0.0
0
VERTEX
8
PORE
10
0.015075
20
0.149552
30
0.0
0
VERTEX
8
PORE
10
0.013065
20
0.149552
30
0.0
0
VERTEX
8
PORE
10
0.011055
20
0.149552
30
0.0
0
VERTEX
8
PORE
10
0.009045
20
0.149552
30
0.0
0
VERTEX
8
PORE
10
0.007035
20
0.149552
30
0.0
0
VERTEX
8
PORE
10
0.005025
20
0.149552
30
0.0
0
VERTEX
8
PORE
10
0.003015
20
0.149552
30
0.0
0
VERTEX
8
PORE
10
0.001005
20
0.149552
30
0.0
0
VERTEX
8
PORE
10
0.001005
20
0.148048
30
0.0
0
VERTEX
8
PORE
10
0.001005
20
0.146545
30
0.0
0
VERTEX
8
PORE
10
0.001005
20
0.145042
30
0.0
0
VERTEX
8
PORE
10
0.001005
20
0.143539
30
0.0
0
VERTEX
8
PORE
10
0.001005
20
0.142036
30
0.0
0
VERTEX
8
PORE
10
0.001005
20
0.140533
30
0.0
0
VERTEX
8
PORE
10
0.001005
20
0.139030
30
0.0
0
VERTEX
8
PORE
10
0.001005
20
0.137527
30
0.0
0
VERTEX
8
PORE
10
0.001005
20
0.136024
30
0.0
0
VERTEX
8
PORE
10
0.001005
20
0.134521
30
0.0
0
VERTEX
8
PORE
10
0.001005
20
0.133018
30
0.0
0
VERTEX
8
PORE
10
0.001005
20
0.131515
30
0.0
0
VERTEX
8
PORE
10
0.001005
20
0.130012
30
0.0
0
VERTEX
8
PORE
10
0.001005
20
0.128509
30
0.0
0
VERTEX
8
PORE
10
0.001005
20
0.127006
30
0.0
0
VERTEX
8
PORE
10
0.001005
20
0.125503
30
0.0
0
VERTEX
8
PORE
10
0.001005
20
0.124000
30
0.0
0
VERTEX
8
PORE
10
0.001005
20
0.122497
30
0.0
0
VERTEX
8
PORE
10
0.001005
20
0.120994
30
0.0
0
VERTEX
8
PORE
10
0.001005
20
0.119491
30
0.0
0
VERTEX
8
PORE
10
0.001005
20
0.117988
30
0.0
0
VERTEX
8
PORE
10
0.001005
20
0.116485
30
0.0
0
VERTEX
8
PORE
10
0.001005
20
0.114982
30
0.0
0
VERTEX
8
PORE
10
0.001005
20
0.113479
30
0.0
0
VERTEX
8
PORE
10
0.001005
20
0.111976
30
0.0
0
VERTEX
8
PORE
10
0.001005
20
0.110473
30
0.0
0
VERTEX
8
PORE
10
0.001005
20
0.108970
30
0.0
0
VERTEX
8
PORE
10
0.001005
20
0.107467
30
0.0
0
VERTEX
8
PORE
10
0.001005
20
0.105964
30
0.0
0
VERTEX
8
PORE
10
0.001005
20
0.104461
30
0.0
0
VERTEX
8
PORE
10
0.001005
20
0.102958
30
0.0
0
VERTEX
8
PORE
10
0.001005
20
0.101455
30
0.0
0
VERTEX
8
PORE
10
0.001005
20
0.099952
30
0.0
0
VERTEX
8
PORE
10
0.001005
20
0.098448
30
0.0
0
VERTEX
8
PORE
10
0.001005
20
0.096945
30
0.0
0
VERTEX
8
PORE
10
0.001005
20
0.095442
30
0.0
0
VERTEX
8
PORE
10
0.001005
20
0.093939
30
0.0
0
VERTEX
8
PORE
10
0.001005
20
0.092436
30
0.0
0
VERTEX
8
PORE
10
0.001005
20
0.090933
30
0.0
0
VERTEX
8
PORE
10
0.001005
20
0.089430
30
0.0
0
VERTEX
8
PORE
10
0.001005
20
0.087927
30
0.0
0
VERTEX
8
PORE
10
0.001005
20
0.086424
30
0.0
0
VERTEX
8
PORE
10
0.001005
20
0.084921
30
0.0
0
VERTEX
8
PORE
10
0.001005
20
0.083418
30
0.0
0
VERTEX
8
PORE
10
0.001005
20
0.081915
30
0.0
0
VERTEX
8
PORE
10
0.001005
20
0.080412
30
0.0
0
VERTEX
8
PORE
10
0.001005
20
0.078909
30
0.0
0
VERTEX
8
PORE
10
0.001005
20
0.077406
30
0.0
0
VERTEX
8
PORE
10
0.001005
20
0.075903
30
0.0
0
VERTEX
8
PORE
10
0.001005
20
0.074400
30
0.0
0
VERTEX
8
PORE
10
0.001005
20
0.072897
30
0.0
0
VERTEX
8
PORE
10
0.001005
20
0.071394
30
0.0
0
VERTEX
8
PORE
10
0.001005
20
0.069891
30
0.0
0
VERTEX
8
PORE
10
0.001005
20
0.068388
30
0.0
0
VERTEX
8
PORE
10
0.001005
20
0.066885
30
0.0
0
VERTEX
8
PORE
10
0.001005
20
0.065382
30
0.0
0
VERTEX
8
PORE
10
0.001005
20
0.063879
30
0.0
0
VERTEX
8
PORE
10
0.001005
20
0.062376
30
0.0
0
VERTEX
8
PORE
10
0.001005
20
0.060873
30
0.0
0
VERTEX
8
PORE
10
0.001005
20
0.059370
30
0.0
0
VERTEX
8
PORE
10
0.001005
20
0.057867
30
0.0
0
VERTEX
8
PORE
10
0.001005
20
0.056364
30
0.0
0
VERTEX
8
PORE
10
0.001005
20
0.054861
30
0.0
0
VERTEX
8
PORE
10
0.001005
20
0.053358
30
0.0
0
VERTEX
8
PORE
10
0.001005
20
0.051855
30
0.0
0
VERTEX
8
PORE
10
0.001005
20
0.050352
30
0.0
0
VERTEX
8
PORE
10
0.001005
20
0.048848
30
0.0
0
VERTEX
8
PORE
10
0.001005
20
0.047345
30
0.0
0
VERTEX
8
PORE
10
0.001005
20
0.045842
30
0.0
0
VERTEX
8
PORE
10
0.001005
20
0.044339
30
0.0
0
VERTEX
8
PORE
10
0.001005
20
0.042836
30
0.0
0
VERTEX
8
PORE
10
0.001005
20
0.041333
30
0.0
0
VERTEX
8
PORE
10
0.001005
20
0.039830
30
0.0
0
VERTEX
8
PORE
10
0.001005
20
0.038327
30
0.0
0
VERTEX
8
PORE
10
0.001005
20
0.036824
30
0.0
0
VERTEX
8
PORE
10
0.001005
20
0.035321
30
0.0
0
VERTEX
8
PORE
10
0.001005
20
0.033818
30
0.0
0
VERTEX
8
PORE
10
0.001005
20
0.032315
30
0.0
0
VERTEX
8
PORE
10
0.001005
20
0.030812
30
0.0
0
VERTEX
8
PORE
10
0.001005
20
0.029309
30
0.0
0
VERTEX
8
PORE
10
0.001005
20
0.027806
30
0.0
0
VERTEX
8
PORE
10
0.001005
20
0.026303
30
0.0
0
VERTEX
8
PORE
10
0.001005
20
0.024800
30
0.0
0
VERTEX
8
PORE
10
0.001005
20
0.023297
30
0.0
0
VERTEX
8
PORE
10
0.001005
20
0.021794
30
0.0
0
VERTEX
8
PORE
10
0.001005
20
0.020291
30
0.0
0
VERTEX
8
PORE
10
0.001005
20
0.018788
30
0.0
0
VERTEX
8
PORE
10
0.001005
20
0.017285
30
0.0
0
VERTEX
8
PORE
10
0.001005
20
0.015782
30
0.0
0
VERTEX
8
PORE
10
0.001005
20
0.014279
30
0.0
0
VERTEX
8
PORE
10
0.001005
20
0.012776
30
0.0
0
VERTEX
8
PORE
10
0.001005
20
0.011273
30
0.0
0
VERTEX
8
PORE
10
0.001005
20
0.009770
30
0.0
0
VERTEX
8
PORE
10
0.001005
20
0.008267
30
0.0
0
VERTEX
8
PORE
10
0.001005
20
0.006764
30
0.0
0
VERTEX
8
PORE
10
0.001005
20
0.005261
30
0.0
0
VERTEX
8
PORE
10
0.001005
20
0.003758
30
0.0
0
VERTEX
8
PORE
10
0.001005
20
0.002255
30
0.0
0
VERTEX
8
PORE
10
0.001005
20
0.000752
30
0.0
0
SEQEND
0
POLYLINE
8
PORE
66
1
70
1
0
VERTEX
8
PORE
10
0.173869
20
0.089430
30
0.0
0
VERTEX
8
PORE
10
0.175879
20
0.089430
30
0.0
0
VERTEX
8
PORE
10
0.175879
20
0.087927
30
0.0
0
VERTEX
8
PORE
10
0.175879
20
0.086424
30
0.0
0
VERTEX
8
PORE
10
0.175879
20
0.084921
30
0.0
0
VERTEX
8
PORE
10
0.175879
20
0.083418
30
0.0
0
VERTEX
8
PORE
10
0.177889
20
0.083418
30
0.0
0
VERTEX
8
PORE
10
0.177889
20
0.081915
30
0.0
0
VERTEX
8
PORE
10
0.179899
20
0.081915
30
0.0
0
VERTEX
8
PORE
10
0.179899
20
0.080412
30
0.0
0
VERTEX
8
PORE
10
0.181910
20
0.080412
30
0.0
0
VERTEX
8
PORE
10
0.181910
20
0.078909
30
0.0
0
VERTEX
8
PORE
10
0.183920
20
0.078909
30
0.0
0
VERTEX
8
PORE
10
0.183920
20
0.077406
30
0.0
0
VERTEX
8
PORE
10
0.185930
20
0.077406
30
0.0
0
VERTEX
8
PORE
10
0.185930
20
0.075903
30
0.0
0
VERTEX
8
PORE
10
0.185930
20
0.074400
30
0.0
0
VERTEX
8
PORE
10
0.185930
20
0.072897
30
0.0
0
VERTEX
8
PORE
10
0.185930
20
0.071394
30
0.0
0
VERTEX
8
PORE
10
0.187940
20
0.071394
30
0.0
0
VERTEX
8
PORE
10
0.187940
20
0.069891
30
0.0
0
VERTEX
8
PORE
10
0.187940
20
0.068388
30
0.0
0
VERTEX
8
PORE
10
0.189950
20
0.068388
30
0.0
0
VERTEX
8
PORE
10
0.189950
20
0.066885
30
0.0
0
VERTEX
8
PORE
10
0.189950
20
0.065382
30
0.0
0
VERTEX
8
PORE
10
0.191960
20
0.065382
30
0.0
0
VERTEX
8
PORE
10
0.191960
20
0.066885
30
0.0
0
VERTEX
8
PORE
10
0.193970
20
0.066885
30
0.0
0
VERTEX
8
PORE
10
0.195980
20
0.066885
30
0.0
0
VERTEX
8
PORE
10
0.195980
20
0.068388
30
0.0
0
VERTEX
8
PORE
10
0.197990
20
0.068388
30
0.0
0
VERTEX
8
PORE
10
0.200000
20
0.068388
30
0.0
0
VERTEX
8
PORE
10
0.202010
20
0.068388
30
0.0
0
VERTEX
8
PORE
10
0.202010
20
0.069891
30
0.0
0
VERTEX
8
PORE
10
0.202010
20
0.071394
30
0.0
0
VERTEX
8
PORE
10
0.204020
20
0.071394
30
0.0
0
VERTEX
8
PORE
10
0.206030
20
0.071394
30
0.0
0
VERTEX
8
PORE
10
0.208040
20
0.071394
30
0.0
0
VERTEX
8
PORE
10
0.208040
20
0.069891
30
0.0
0
VERTEX
8
PORE
10
0.208040
20
0.071394
30
0.0
0
VERTEX
8
PORE
10
0.208040
20
0.072897
30
0.0
0
VERTEX
8
PORE
10
0.208040
20
0.074400
30
0.0
0
VERTEX
8
PORE
10
0.210050
20
0.074400
30
0.0
0
VERTEX
8
PORE
10
0.212060
20
0.074400
30
0.0
0
VERTEX
8
PORE
10
0.212060
20
0.075903
30
0.0
0
VERTEX
8
PORE
10
0.214070
20
0.075903
30
0.0
0
VERTEX
8
PORE
10
0.214070
20
0.077406
30
0.0
0
VERTEX
8
PORE
10
0.212060
20
0.077406
30
0.0
0
VERTEX
8
PORE
10
0.212060
20
0.078909
30
0.0
0
VERTEX
8
PORE
10
0.212060
20
0.080412
30
0.0
0
VERTEX
8
PORE
10
0.214070
20
0.080412
30
0.0
0
VERTEX
8
PORE
10
0.214070
20
0.081915
30
0.0
0
VERTEX
8
PORE
10
0.216080
20
0.081915
30
0.0
0
VERTEX
8
PORE
10
0.218090
20
0.081915
30
0.0
0
VERTEX
8
PORE
10
0.218090
20
0.083418
30
0.0
0
VERTEX
8
PORE
10
0.218090
20
0.084921
30
0.0
0
VERTEX
8
PORE
10
0.220101
20
0.084921
30
0.0
0
VERTEX
8
PORE
10
0.220101
20
0.086424
30
0.0
0
VERTEX
8
PORE
10
0.218090
20
0.086424
30
0.0
0
VERTEX
8
PORE
10
0.218090
20
0.087927
30
0.0
0
VERTEX
8
PORE
10
0.218090
20
0.089430
30
0.0
0
VERTEX
8
PORE
10
0.218090
20
0.090933
30
0.0
0
VERTEX
8
PORE
10
0.218090
20
0.092436
30
0.0
0
VERTEX
8
PORE
10
0.218090
20
0.093939
30
0.0
0
VERTEX
8
PORE
10
0.218090
20
0.095442
30
0.0
0
VERTEX
8
PORE
10
0.218090
20
0.096945
30
0.0
0
VERTEX
8
PORE
10
0.218090
20
0.098448
30
0.0
0
VERTEX
8
PORE
10
0.218090
20
0.099952
30
0.0
0
VERTEX
8
PORE
10
0.220101
20
0.099952
30
0.0
0
VERTEX
8
PORE
10
0.218090
20
0.099952
30
0.0
0
VERTEX
8
PORE
10
0.218090
20
0.101455
30
0.0
0
VERTEX
8
PORE
10
0.218090
20
0.102958
30
0.0
0
VERTEX
8
PORE
10
0.216080
20
0.102958
30
0.0
0
VERTEX
8
PORE
10
0.216080
20
0.104461
30
0.0
0
VERTEX
8
PORE
10
0.214070
20
0.104461
30
0.0
0
VERTEX
8
PORE
10
0.214070
20
0.105964
30
0.0
0
VERTEX
8
PORE
10
0.212060
20
0.105964
30
0.0
0
VERTEX
8
PORE
10
0.212060
20
0.107467
30
0.0
0
VERTEX
8
PORE
10
0.210050
20
0.107467
30
0.0
0
VERTEX
8
PORE
10
0.210050
20
0.108970
30
0.0
0
VERTEX
8
PORE
10
0.208040
20
0.108970
30
0.0
0
VERTEX
8
PORE
10
0.206030
20
0.108970
30
0.0
0
VERTEX
8
PORE
10
0.206030
20
0.110473
30
0.0
0
VERTEX
8
PORE
10
0.204020
20
0.110473
30
0.0
0
VERTEX
8
PORE
10
0.202010
20
0.110473
30
0.0
0
VERTEX
8
PORE
10
0.202010
20
0.111976
30
0.0
0
VERTEX
8
PORE
10
0.200000
20
0.111976
30
0.0
0
VERTEX
8
PORE
10
0.200000
20
0.113479
30
0.0
0
VERTEX
8
PORE
10
0.200000
20
0.111976
30
0.0
0
VERTEX
8
PORE
10
0.197990
20
0.111976
30
0.0
0
VERTEX
8
PORE
10
0.195980
20
0.111976
30
0.0
0
VERTEX
8
PORE
10
0.195980
20
0.110473
30
0.0
0
VERTEX
8
PORE
10
0.193970
20
0.110473
30
0.0
0
VERTEX
8
PORE
10
0.191960
20
0.110473
30
0.0
0
VERTEX
8
PORE
10
0.191960
20
0.108970
30
0.0
0
VERTEX
8
PORE
10
0.191960
20
0.107467
30
0.0
0
VERTEX
8
PORE
10
0.189950
20
0.107467
30
0.0
0
VERTEX
8
PORE
10
0.189950
20
0.105964
30
0.0
0
VERTEX
8
PORE
10
0.187940
20
0.105964
30
0.0
0
VERTEX
8
PORE
10
0.185930
20
0.105964
30
0.0
0
VERTEX
8
PORE
10
0.185930
20
0.104461
30
0.0
0
VERTEX
8
PORE
10
0.185930
20
0.102958
30
0.0
0
VERTEX
8
PORE
10
0.183920
20
0.102958
30
0.0
0
VERTEX
8
PORE
10
0.183920
20
0.101455
30
0.0
0
VERTEX
8
PORE
10
0.181910
20
0.101455
30
0.0
0
VERTEX
8
PORE
10
0.179899
20
0.101455
30
0.0
0
VERTEX
8
PORE
10
0.179899
20
0.099952
30
0.0
0
VERTEX
8
PORE
10
0.177889
20
0.099952
30
0.0
0
VERTEX
8
PORE
10
0.177889
20
0.098448
30
0.0
0
VERTEX
8
PORE
10
0.177889
20
0.096945
30
0.0
0
VERTEX
8
PORE
10
0.177889
20
0.095442
30
0.0
0
VERTEX
8
PORE
10
0.175879
20
0.095442
30
0.0
0
VERTEX
8
PORE
10
0.175879
20
0.093939
30
0.0
0
VERTEX
8
PORE
10
0.175879
20
0.092436
30
0.0
0
VERTEX
8
PORE
10
0.173869
20
0.092436
30
0.0
0
VERTEX
8
PORE
10
0.173869
20
0.090933
30
0.0
0
VERTEX
8
PORE
10
0.173869
20
0.089430
30
0.0
0
SEQEND
0
ENDSEC
0
EOF
